<svg width="45" height="45" viewBox="0 0 45 45" fill="none" xmlns="http://www.w3.org/2000/svg">
<g clip-path="url(#clip0)">
<path d="M43.8176 26.3283C43.1645 26.3283 42.6353 26.8847 42.6353 27.5713V38.6084C42.6329 40.6672 41.0464 42.3357 39.0881 42.3376H5.91188C3.95357 42.3357 2.36706 40.6672 2.36475 38.6084V6.21534C2.36706 4.15699 3.95357 2.48856 5.91188 2.48613H16.4101C17.0632 2.48613 17.5925 1.92967 17.5925 1.24307C17.5925 0.556952 17.0632 0 16.4101 0H5.91188C2.64834 0.00388458 0.00369492 2.78428 0 6.21534V38.6089C0.00369492 42.0399 2.64834 44.8203 5.91188 44.8242H39.0881C42.3517 44.8203 44.9963 42.0399 45 38.6089V27.5713C45 26.8847 44.4707 26.3283 43.8176 26.3283V26.3283Z" fill="#469AFF"/>
<path d="M9.67676 25.9922L13.1465 35.7891L16.5977 25.9922H20.2529V39.5H17.4604V35.8076L17.7388 29.4341L14.0928 39.5H12.1816L8.54492 29.4434L8.82324 35.8076V39.5H6.04004V25.9922H9.67676Z" fill="#469AFF"/>
<path d="M40.5481 14.052C40.9341 13.2636 41.0395 12.3719 40.8614 11.5245L42.4926 10.5395C42.5554 10.5015 42.6136 10.4572 42.6647 10.4078C42.857 10.2244 42.9663 9.97742 42.9723 9.712C42.9787 9.44623 42.8808 9.19429 42.6973 9.00197L42.6008 8.90084C42.533 8.82952 42.4539 8.77381 42.3709 8.72661L42.4039 8.69503C42.61 8.49881 42.7271 8.2341 42.7339 7.94952C42.7406 7.66493 42.6359 7.39526 42.4397 7.18945C42.0341 6.76506 41.3589 6.74945 40.9345 7.15432L40.9008 7.18626C40.8578 7.10181 40.8067 7.02019 40.7379 6.94816L40.6414 6.84668C40.4576 6.65435 40.2106 6.54506 39.9452 6.53903C39.6794 6.53477 39.4275 6.63058 39.2369 6.81261C39.1834 6.86335 39.1355 6.92013 39.0961 6.97974L38.0355 8.56303C37.8846 8.524 37.7328 8.49206 37.5788 8.47113C37.3794 7.07377 36.9504 6.20265 36.9308 6.16361L36.7722 5.84603L36.2818 6.09123L35.7606 2.70358C35.6084 1.71677 34.7731 1 33.7742 1C32.7753 1 31.94 1.71677 31.7882 2.70394L31.2616 6.12671L30.8116 5.77684L30.6179 6.16397C30.5892 6.22145 29.9522 7.5191 29.8784 9.49732C29.4256 9.32239 28.942 9.2131 28.4371 9.17868C28.3806 7.30761 28.0989 5.6129 26.6774 5.6129V6.32258C27.1873 6.32258 27.4513 6.86655 27.5897 7.63939C27.154 7.26219 26.5876 7.03226 25.9677 7.03226H23.4839V7.3871C23.4839 8.63187 24.405 9.66232 25.6008 9.84081C24.1251 10.7031 23.129 12.3002 23.129 14.129C23.129 14.139 23.1308 14.1485 23.1308 14.1585C21.7225 14.6347 21 15.2202 21 15.9032C21 19.8164 24.1836 23 28.0968 23H35.9032C39.8164 23 43 19.8164 43 15.9032C43 15.1676 42.1743 14.546 40.5481 14.052ZM32 18.0323C31.7197 18.0323 31.4457 18.0291 31.1754 18.0245C32.3488 17.0951 33.0645 15.6676 33.0645 14.129C33.0645 14.0552 33.0567 13.9832 33.0535 13.9101L35.6524 16.5089L36.1541 16.0072L33.3154 13.1685L33.0152 13.4687C32.9744 13.1625 32.9077 12.8651 32.8133 12.5791L34.4573 10.4437C34.5559 10.3156 34.6659 10.1935 34.7834 10.0814L34.8433 10.0239C36.1168 8.80823 38.1426 8.85506 39.3586 10.1293C40.5743 11.4032 40.5271 13.4289 39.2529 14.6446L39.1926 14.7025C39.0755 14.8142 38.9485 14.9178 38.8157 15.0108L34.5907 17.9599C33.7802 18.006 32.9165 18.0323 32 18.0323V18.0323ZM41.8879 9.30216C41.9639 9.30394 42.0345 9.33516 42.0874 9.39052L42.1842 9.492C42.2364 9.547 42.2648 9.61903 42.263 9.69497C42.2609 9.7709 42.2296 9.84152 42.1739 9.89474C42.1597 9.90858 42.1434 9.921 42.1253 9.93164L40.6442 10.8262C40.5999 10.7205 40.5516 10.6161 40.4977 10.5136L41.6846 9.38058C41.7396 9.32877 41.8028 9.30535 41.8879 9.30216V9.30216ZM41.9259 7.67948C41.9915 7.74797 42.0263 7.8381 42.0238 7.93284C42.0217 8.02758 41.9827 8.11558 41.9138 8.18123L40.1042 9.90858C40.0311 9.81668 39.9548 9.72619 39.8721 9.63961C39.7894 9.55303 39.7025 9.47284 39.6141 9.39548L40.7049 8.35474C40.7049 8.35474 40.7053 8.35439 40.7053 8.35403L41.4238 7.66813C41.5657 7.53223 41.7911 7.53826 41.9259 7.67948V7.67948ZM39.6862 7.3729C39.6968 7.35693 39.7092 7.34203 39.7248 7.32713C39.7798 7.27461 39.8505 7.24942 39.9278 7.24835C40.0037 7.25013 40.0747 7.28135 40.1272 7.33671L40.2237 7.43819C40.332 7.55139 40.3277 7.73129 40.2149 7.83952L39.0269 8.97323C38.9272 8.91432 38.825 8.8611 38.7214 8.81213L39.6862 7.3729ZM36.8549 8.44061C35.9508 8.48497 35.058 8.83803 34.3529 9.51045L34.293 9.56794C34.1496 9.7049 34.0158 9.85358 33.8952 10.0104L32.4954 11.8286C32.0582 10.9965 31.3922 10.3049 30.5814 9.83406C30.5814 9.79964 30.5835 9.76771 30.5842 9.73365L36.4334 6.80906C36.5579 7.13835 36.7389 7.70397 36.8549 8.44061V8.44061ZM32.4897 2.81145C32.5876 2.1731 33.128 1.70968 33.7742 1.70968C34.4204 1.70968 34.9608 2.1731 35.0587 2.81145L35.6147 6.42477L33.1986 7.633L31.9031 6.62526L32.4897 2.81145ZM31.0863 6.88961L32.4946 7.985L30.631 8.91681C30.7261 8.01055 30.9365 7.303 31.0863 6.88961V6.88961ZM24.2294 7.74194H25.9677C26.8247 7.74194 27.5415 8.35261 27.7061 9.16129H25.9677C25.1108 9.16129 24.394 8.55061 24.2294 7.74194ZM27.7402 9.88906C27.7419 10.1229 27.7419 10.3553 27.7419 10.5806V11.2357C27.5198 11.164 27.3871 11.0352 27.3871 10.9355H26.6774C26.6774 11.5323 27.3009 12 28.0968 12C28.8927 12 29.5161 11.5323 29.5161 10.9355H28.8065C28.8065 11.0348 28.6737 11.1636 28.4516 11.2357V10.5806C28.4516 10.3521 28.4513 10.1204 28.4495 9.88871C30.6328 10.069 32.3548 11.9003 32.3548 14.129C32.3548 15.7812 31.3936 17.285 29.9008 17.9847C28.2064 17.9074 26.736 17.7402 25.5281 17.5216C24.4707 16.719 23.8387 15.4568 23.8387 14.129C23.8387 11.9017 25.5586 10.0711 27.7402 9.88906V9.88906ZM23.1947 14.8838C23.3295 15.7496 23.6893 16.5646 24.2361 17.2445C22.606 16.8329 21.7097 16.3283 21.7097 15.9032C21.7097 15.668 22.1092 15.2737 23.1947 14.8838ZM35.9032 22.2903H28.0968C24.9671 22.2903 22.3608 20.0257 21.8183 17.0501C23.5538 18.1643 27.7952 18.7419 32 18.7419C36.2048 18.7419 40.4462 18.1643 42.1817 17.0501C41.6392 20.0257 39.0329 22.2903 35.9032 22.2903ZM35.9799 17.8552L39.222 15.5924C39.3845 15.4788 39.54 15.3522 39.683 15.2155L39.7433 15.1581C39.9001 15.0083 40.0375 14.8465 40.1638 14.6787C41.7258 15.1268 42.2903 15.6133 42.2903 15.9032C42.2903 16.5884 39.964 17.4812 35.9799 17.8552V17.8552ZM40.9235 18.5532C39.9338 20.4207 38.0099 21.5806 35.9032 21.5806H35.5484V20.871H35.9032C37.7466 20.871 39.43 19.8554 40.2965 18.221L40.9235 18.5532ZM33.4194 3.48387H32.7097V2.77419H33.4194V3.48387ZM34.8387 3.48387H34.129V2.77419H34.8387V3.48387ZM33.4194 4.90323H32.7097V4.19355H33.4194V4.90323ZM34.8387 4.90323H34.129V4.19355H34.8387V4.90323ZM33.4194 6.32258H32.7097V5.6129H33.4194V6.32258ZM34.8387 6.32258H34.129V5.6129H34.8387V6.32258ZM25.3283 13.4978L24.636 13.3409C24.6981 13.0681 24.7925 12.8023 24.9174 12.5518L25.5529 12.8679C25.4532 13.0681 25.3776 13.2799 25.3283 13.4978ZM24.5484 14.129H25.2581C25.2581 15.2148 25.8624 16.1896 26.8353 16.6729L26.5192 17.3084C25.3038 16.7041 24.5484 15.4859 24.5484 14.129V14.129ZM38.9928 13.1685L38.4911 13.6702L35.6524 10.8315L36.1541 10.3298L38.9928 13.1685ZM34.7347 11.7491L37.5735 14.5878L37.0717 15.0896L34.233 12.2509L34.7347 11.7491ZM34.129 20.871H34.8387V21.5806H34.129V20.871Z" fill="#469AFF"/>
</g>
<defs>
<clipPath id="clip0">
<rect width="45" height="45" fill="white"/>
</clipPath>
</defs>
</svg>
